# xmcd
#
# Track frame offsets:
#	150
#	16672
#	31491
#	41504
#	55366
#	68886
#	89401
#	103216
#	122906
#	140061
#
# Disc length: 2064 seconds
#
# Revision: 0
# Processed by: cddbd v1.5.2PL0 Copyright (c) Steve Scherf et al.
# Submitted via: dBpowerAMP V4.0
#
DISCID=8d080e0a
DTITLE=Tracy Byrd - Super Hits
DYEAR=2007
DGENRE=Country
TTITLE0=I'm From The Country
TTITLE1=How'd I Wind Up In Jamaica
TTITLE2=Drinkin' Bone
TTITLE3=Watermelon Crawl
TTITLE4=The Truth About Men
TTITLE5=Put Your Hand In Mine
TTITLE6=Ten Rounds With Jose Cuervo
TTITLE7=Keeper Of The Stars
TTITLE8=Just Let Me Be In Love
TTITLE9=Take Me With You When You Go
EXTD=
EXTT0=
EXTT1=
EXTT2=
EXTT3=
EXTT4=
EXTT5=
EXTT6=
EXTT7=
EXTT8=
EXTT9=
PLAYORDER=
